<svg width="44" height="44" viewBox="0 0 44 44" fill="none" xmlns="http://www.w3.org/2000/svg">
<g clip-path="url(#clip0_4202_9)">
<path d="M0 8C0 3.58172 3.58172 0 8 0H36C40.4183 0 44 3.58172 44 8V36C44 40.4183 40.4183 44 36 44H8C3.58172 44 0 40.4183 0 36V8Z" fill="black"/>
<path d="M23.3311 21.3438C23.3311 17.9119 24.7829 15.8438 27.4668 15.8438L27.8291 15.8555C29.5951 15.9733 30.6842 16.9689 31.0967 18.6602C31.1353 18.8143 31.2582 18.9181 31.3916 18.9414L31.4492 18.9463H34.1543L34.21 18.9404C34.3337 18.9132 34.4134 18.7949 34.375 18.6602C33.473 14.6122 30.8107 13.2695 27.5107 13.2695C22.8687 13.2695 19.877 16.4602 19.877 21.3662L19.8857 21.8008C20.056 26.1099 22.7669 29.13 27.0947 29.3203L27.5332 29.3301C31.119 29.3299 33.6264 27.7237 34.4844 23.5879C34.5284 23.4339 34.4186 23.3018 34.2646 23.3018V22.3018C35.0117 22.3018 35.6457 22.9819 35.4619 23.79L35.4639 23.791C35.0004 26.0251 34.0632 27.6985 32.6455 28.7998C31.2344 29.8959 29.4697 30.33 27.5332 30.3301C24.9269 30.3301 22.7371 29.4205 21.2031 27.791C19.6759 26.1685 18.877 23.9166 18.877 21.3662C18.877 18.7106 19.6892 16.4239 21.2246 14.793C22.766 13.1558 24.9515 12.2695 27.5107 12.2695C29.2863 12.2695 31.0036 12.6298 32.4189 13.6299C33.8519 14.6426 34.8571 16.228 35.3506 18.4424H35.3486C35.5442 19.2573 34.9062 19.9463 34.1543 19.9463H31.4492C30.8729 19.9463 30.3508 19.5734 30.1602 19.0166L30.127 18.9023L30.125 18.8965C29.9451 18.1592 29.6316 17.6696 29.2393 17.3594C28.8479 17.0498 28.2839 16.8438 27.4668 16.8438C26.4144 16.8438 25.6903 17.2323 25.1963 17.9014C24.6709 18.6132 24.3311 19.7491 24.3311 21.3438L24.335 21.6367C24.3752 23.0704 24.712 24.0865 25.2021 24.7324C25.6958 25.3829 26.4165 25.7558 27.4443 25.7559V26.7559C24.9083 26.7557 23.4251 24.8975 23.335 21.6611L23.3311 21.3438ZM31.4932 22.3018V23.3018L31.4355 23.3066C31.3025 23.33 31.1824 23.4338 31.1631 23.5879C30.7231 25.6339 29.5783 26.7559 27.4443 26.7559V25.7559C28.3304 25.7559 28.8944 25.5273 29.2773 25.1895C29.6726 24.8407 29.9933 24.272 30.1855 23.3779C30.3151 22.6905 30.9262 22.3018 31.4932 22.3018ZM34.2646 22.3018V23.3018H31.4932V22.3018H34.2646Z" fill="url(#paint0_linear_4202_9)"/>
<path d="M10.1338 28.7139C10.1338 28.8678 10.266 28.9999 10.4199 29H19.748C19.902 29 20.0342 28.8679 20.0342 28.7139V26.7998C20.0341 26.6459 19.902 26.5137 19.748 26.5137V25.5137C20.4543 25.5137 21.0341 26.0936 21.0342 26.7998V28.7139C21.0342 29.4202 20.4543 30 19.748 30H10.4199C9.71375 29.9999 9.13379 29.4201 9.13379 28.7139V28.7002L9.13477 28.6875L9.33203 21.2998L9.13477 13.9131L9.13379 13.8994V13.8857C9.13393 13.1797 9.71384 12.5998 10.4199 12.5996V13.5996C10.2661 13.5998 10.1339 13.7319 10.1338 13.8857L10.332 21.2998L10.1338 28.7139ZM13.3457 12.5996C14.0519 12.5996 14.6317 13.1796 14.6318 13.8857V13.9102L14.4561 21.0928L14.6006 25.5137H19.748V26.5137H13.6318L13.4561 21.1016L13.6318 13.8857C13.6317 13.7319 13.4996 13.5996 13.3457 13.5996V12.5996ZM13.3457 12.5996V13.5996H10.4199V12.5996H13.3457Z" fill="url(#paint1_linear_4202_9)"/>
</g>
<defs>
<linearGradient id="paint0_linear_4202_9" x1="27.1855" y1="12.2695" x2="27.1855" y2="30.3301" gradientUnits="userSpaceOnUse">
<stop stop-color="#81ABFF"/>
<stop offset="1" stop-color="#92FF50"/>
</linearGradient>
<linearGradient id="paint1_linear_4202_9" x1="15.084" y1="12.5996" x2="15.084" y2="30" gradientUnits="userSpaceOnUse">
<stop stop-color="#81ABFF"/>
<stop offset="1" stop-color="#92FF50"/>
</linearGradient>
<clipPath id="clip0_4202_9">
<rect width="44" height="44" fill="white"/>
</clipPath>
</defs>
</svg>
