<svg width="18" height="18" viewBox="0 0 18 18" fill="none" xmlns="http://www.w3.org/2000/svg">
<path d="M11.5049 3.84961C12.3806 3.84961 13.2849 4.02708 14.0508 4.56836C14.8342 5.12199 15.3531 5.97179 15.6006 7.08203H15.5977C15.7552 7.75264 15.2837 8.32536 14.6885 8.41602C15.3021 8.48053 15.8028 9.05976 15.6523 9.74219L15.6543 9.74316C15.4248 10.8494 14.9456 11.7396 14.1729 12.3398C13.4067 12.9348 12.4732 13.1504 11.5146 13.1504C10.1983 13.1503 9.05266 12.6873 8.24023 11.8242C8.19414 11.7752 8.14989 11.7248 8.10645 11.6738V11C8.10645 10.93 8.04651 10.8702 7.97656 10.8701H7.56934C7.21286 10.1774 7.03519 9.37767 7.03516 8.53027C7.03516 7.21253 7.43988 6.02945 8.25098 5.16797C9.06787 4.30055 10.2118 3.84961 11.5049 3.84961ZM9.60449 8.51953C9.60462 6.95981 10.2655 6.01953 11.4854 6.01953L11.6494 6.02539C12.4521 6.07889 12.9472 6.53115 13.1348 7.2998C13.1498 7.3598 13.193 7.40308 13.2432 7.4209L13.2949 7.42969H14.5244C14.5944 7.42969 14.645 7.3698 14.625 7.2998C14.215 5.45993 13.0048 4.84961 11.5049 4.84961C9.39488 4.84961 8.03516 6.30027 8.03516 8.53027L8.03906 8.72754C8.11643 10.6862 9.34842 12.0588 11.3154 12.1455L11.5146 12.1504C13.0428 12.1504 14.1402 11.5083 14.5928 9.87891L14.6748 9.54004C14.6898 9.48767 14.6655 9.44114 14.623 9.4209L14.5752 9.41016H13.3145L13.2637 9.41895C13.2138 9.43668 13.1726 9.4799 13.165 9.54004C12.965 10.47 12.4446 10.9805 11.4746 10.9805V9.98047C11.7785 9.98047 11.8958 9.90475 11.9473 9.85938C12.011 9.80311 12.1152 9.66602 12.1875 9.33008C12.2924 8.80051 12.7262 8.48157 13.1631 8.4209C12.7205 8.37002 12.3402 8.06775 12.1934 7.63867L12.165 7.54297L12.1631 7.53711C12.1032 7.29154 12.0145 7.18606 11.9521 7.13672C11.8908 7.08821 11.7621 7.01961 11.4854 7.01953C11.1649 7.01953 11.0046 7.12622 10.8916 7.2793C10.7471 7.47522 10.6046 7.86108 10.6045 8.51953C10.6045 9.17287 10.7502 9.54546 10.8906 9.73047C11.0018 9.87685 11.1608 9.98041 11.4746 9.98047V10.9805L11.2578 10.9697C10.2025 10.8652 9.60449 9.98206 9.60449 8.51953Z" fill="black"/>
<path d="M3.61719 11.9199C3.63737 11.9662 3.68394 11.9999 3.73633 12H7.97656L8.02637 11.9893C8.05717 11.9758 8.08227 11.9507 8.0957 11.9199L8.10645 11.8701V11C8.10645 10.9476 8.07267 10.9011 8.02637 10.8809L7.97656 10.8701V9.87012C8.06945 9.87013 8.15962 9.88199 8.24609 9.90332C8.42587 10.4456 8.71756 10.9095 9.10645 11.2734V11.8701L9.10059 11.9854C9.04248 12.5538 8.55987 12.9999 7.97656 13H3.73633C3.11414 12.9999 2.60651 12.4923 2.60645 11.8701V11.8438L2.69629 8.5L2.60645 5.15625V5.12988C2.60651 4.50769 3.11413 4.00006 3.73633 4V5L3.68652 5.01074C3.64024 5.03092 3.6065 5.07749 3.60645 5.12988L3.69629 8.5L3.60645 11.8701L3.61719 11.9199ZM5.06641 4C5.68866 4 6.19623 4.50765 6.19629 5.12988V5.1543L6.11621 8.40137L6.16504 9.87012H7.97656V10.8701H5.19629L5.11621 8.41016L5.19629 5.12988C5.19624 5.07744 5.16257 5.03089 5.11621 5.01074L5.06641 5V4ZM5.06641 4V5H3.73633V4H5.06641Z" fill="black"/>
</svg>
